<svg width="16" height="16" viewBox="0 0 16 16" fill="none" xmlns="http://www.w3.org/2000/svg">
<path d="M2 4H3.33333H14" stroke="#FB4E4E" stroke-width="1.7" stroke-linecap="round" stroke-linejoin="round"/>
<path d="M5.3335 4V2.66667C5.3335 2.31304 5.47397 1.9739 5.72402 1.72386C5.97407 1.47381 6.31321 1.33333 6.66683 1.33333H9.3335C9.68712 1.33333 10.0263 1.47381 10.2763 1.72386C10.5264 1.9739 10.6668 2.31304 10.6668 2.66667V4M12.6668 4V13.3333C12.6668 13.687 12.5264 14.0261 12.2763 14.2761C12.0263 14.5262 11.6871 14.6667 11.3335 14.6667H4.66683C4.31321 14.6667 3.97407 14.5262 3.72402 14.2761C3.47397 14.0261 3.3335 13.687 3.3335 13.3333V4H12.6668Z" stroke="#FB4E4E" stroke-width="1.7" stroke-linecap="round" stroke-linejoin="round"/>
<path d="M6.6665 7.33333V11.3333" stroke="#FB4E4E" stroke-width="1.7" stroke-linecap="round" stroke-linejoin="round"/>
<path d="M9.3335 7.33333V11.3333" stroke="#FB4E4E" stroke-width="1.7" stroke-linecap="round" stroke-linejoin="round"/>
</svg>
